<svg xmlns="http://www.w3.org/2000/svg" version="1.1" xmlns:xlink="http://www.w3.org/1999/xlink" xmlns:svgjs="http://svgjs.dev/svgjs" viewBox="0 0 285 106" preserveAspectRatio="xMidYMid slice"><defs><pattern id="pppixelate-pattern" width="20" height="20" patternUnits="userSpaceOnUse" patternTransform="translate(-131 140) scale(3.9) rotate(81)" shape-rendering="crispEdges">
    <rect width="1" height="1" x="4" y="2" fill="hsla(353, 98%, 41%, 1.00)"></rect><rect width="1" height="1" x="3" y="3" fill="hsla(353, 98%, 41%, 1.00)"></rect><rect width="1" height="1" x="4" y="3" fill="hsl(50, 98%, 50%)"></rect><rect width="1" height="1" x="2" y="4" fill="hsla(353, 98%, 41%, 1.00)"></rect><rect width="1" height="1" x="3" y="4" fill="hsl(50, 98%, 50%)"></rect><rect width="1" height="1" x="4" y="4" fill="hsla(353, 98%, 41%, 1.00)"></rect><rect width="1" height="1" x="5" y="4" fill="hsla(353, 98%, 41%, 1.00)"></rect><rect width="1" height="1" x="6" y="4" fill="hsl(50, 98%, 50%)"></rect><rect width="1" height="1" x="7" y="4" fill="hsla(353, 98%, 41%, 1.00)"></rect><rect width="1" height="1" x="4" y="5" fill="hsla(353, 98%, 41%, 1.00)"></rect><rect width="1" height="1" x="5" y="5" fill="hsl(50, 98%, 50%)"></rect><rect width="1" height="1" x="6" y="5" fill="hsla(353, 98%, 41%, 1.00)"></rect><rect width="1" height="1" x="7" y="5" fill="hsla(353, 98%, 41%, 1.00)"></rect><rect width="1" height="1" x="8" y="5" fill="hsla(353, 98%, 41%, 1.00)"></rect><rect width="1" height="1" x="4" y="6" fill="hsl(50, 98%, 50%)"></rect><rect width="1" height="1" x="5" y="6" fill="hsla(353, 98%, 41%, 1.00)"></rect><rect width="1" height="1" x="6" y="6" fill="hsla(353, 98%, 41%, 1.00)"></rect><rect width="1" height="1" x="7" y="6" fill="hsla(353, 98%, 41%, 1.00)"></rect><rect width="1" height="1" x="8" y="6" fill="hsl(50, 98%, 50%)"></rect><rect width="1" height="1" x="9" y="6" fill="hsl(50, 98%, 50%)"></rect><rect width="1" height="1" x="4" y="7" fill="hsla(353, 98%, 41%, 1.00)"></rect><rect width="1" height="1" x="5" y="7" fill="hsla(353, 98%, 41%, 1.00)"></rect><rect width="1" height="1" x="6" y="7" fill="hsla(353, 98%, 41%, 1.00)"></rect><rect width="1" height="1" x="7" y="7" fill="hsl(50, 98%, 50%)"></rect><rect width="1" height="1" x="8" y="7" fill="hsl(50, 98%, 50%)"></rect><rect width="1" height="1" x="9" y="7" fill="hsla(353, 98%, 41%, 1.00)"></rect><rect width="1" height="1" x="5" y="8" fill="hsla(353, 98%, 41%, 1.00)"></rect><rect width="1" height="1" x="6" y="8" fill="hsl(50, 98%, 50%)"></rect><rect width="1" height="1" x="7" y="8" fill="hsl(50, 98%, 50%)"></rect><rect width="1" height="1" x="8" y="8" fill="hsla(353, 98%, 41%, 1.00)"></rect><rect width="1" height="1" x="9" y="8" fill="hsla(353, 98%, 41%, 1.00)"></rect><rect width="1" height="1" x="6" y="9" fill="hsl(50, 98%, 50%)"></rect><rect width="1" height="1" x="7" y="9" fill="hsla(353, 98%, 41%, 1.00)"></rect><rect width="1" height="1" x="8" y="9" fill="hsla(353, 98%, 41%, 1.00)"></rect><rect width="1" height="1" x="9" y="9" fill="hsla(353, 98%, 41%, 1.00)"></rect><rect width="1" height="1" x="10" y="9" fill="hsl(50, 98%, 50%)"></rect><rect width="1" height="1" x="11" y="9" fill="hsla(353, 98%, 41%, 1.00)"></rect><rect width="1" height="1" x="9" y="10" fill="hsl(50, 98%, 50%)"></rect><rect width="1" height="1" x="10" y="10" fill="hsla(353, 98%, 41%, 1.00)"></rect><rect width="1" height="1" x="9" y="11" fill="hsla(353, 98%, 41%, 1.00)"></rect>
  </pattern></defs><rect width="100%" height="100%" fill="url(#pppixelate-pattern)"></rect></svg>